<?xml version="1.0" standalone="no"?>
<!DOCTYPE svg PUBLIC "-//W3C//DTD SVG 20010904//EN"
 "http://www.w3.org/TR/2001/REC-SVG-20010904/DTD/svg10.dtd">
<svg version="1.0" xmlns="http://www.w3.org/2000/svg"
 width="256.000000pt" height="256.000000pt" viewBox="0 0 256.000000 256.000000"
 preserveAspectRatio="xMidYMid meet">
<metadata>
Created by potrace 1.11, written by Peter Selinger 2001-2013
</metadata>
<g transform="translate(0.000000,256.000000) scale(0.100000,-0.100000)"
fill="#000000" stroke="none">
<path d="M890 2449 c-258 -107 -275 -114 -294 -125 -17 -11 -17 -17 19 -170
20 -87 39 -167 41 -177 4 -25 -54 -79 -77 -72 -10 3 -26 8 -36 10 -10 2 -79
17 -154 34 -75 17 -139 31 -142 31 -8 0 -22 -31 -106 -240 -40 -96 -76 -183
-81 -192 -6 -10 -10 -21 -10 -26 0 -4 70 -50 155 -102 l154 -95 1 -42 c0 -50
10 -42 -210 -177 -114 -70 -104 -61 -95 -83 5 -10 9 -20 10 -23 1 -3 7 -16 12
-30 23 -53 116 -278 136 -328 11 -30 26 -56 32 -59 7 -2 73 10 146 27 74 18
145 34 159 36 14 3 30 6 37 9 6 2 20 -4 30 -13 43 -40 43 -44 23 -128 -11 -43
-22 -91 -25 -106 -3 -16 -12 -58 -21 -94 -8 -37 -11 -70 -7 -74 4 -5 49 -25
98 -45 50 -20 104 -43 120 -50 17 -7 53 -22 82 -34 28 -11 64 -26 80 -33 15
-6 31 -12 35 -12 3 -1 10 -4 14 -8 15 -16 31 -7 50 27 10 19 22 35 26 35 3 0
8 6 10 13 2 6 32 60 68 119 l65 107 45 0 45 0 95 -154 c52 -85 98 -155 101
-155 3 0 106 42 230 94 l224 94 -3 35 c-1 19 -18 100 -36 179 l-34 143 30 31
c16 18 37 30 46 28 10 -2 55 -12 102 -23 47 -11 96 -22 110 -25 14 -3 47 -11
73 -17 27 -6 53 -7 57 -3 4 5 24 50 44 99 20 50 41 99 46 110 18 38 100 238
100 244 0 4 -70 49 -155 101 l-154 95 -1 45 c0 36 4 47 20 55 16 8 239 147
283 177 9 5 -163 441 -182 461 -5 5 -69 -6 -143 -23 -75 -17 -146 -33 -158
-35 -12 -2 -29 -7 -39 -10 -11 -3 -29 5 -49 24 l-31 30 40 173 c22 95 38 177
35 183 -2 6 -41 26 -87 44 -46 19 -147 61 -223 93 -76 32 -142 58 -145 58 -3
0 -49 -70 -101 -155 l-95 -154 -42 -1 c-41 0 -44 2 -82 59 -21 32 -52 82 -67
110 -16 28 -32 51 -36 51 -5 0 -8 5 -8 10 0 12 -43 80 -50 80 -3 0 -70 -28
-150 -61z m765 -143 c45 -20 96 -42 133 -56 17 -7 32 -14 32 -17 0 -2 -16 -76
-36 -163 l-36 -158 83 -82 c80 -79 83 -81 118 -74 20 4 44 9 53 10 9 2 65 15
124 29 59 14 108 24 110 23 12 -13 100 -239 95 -246 -3 -5 -17 -15 -30 -22
-14 -7 -30 -17 -35 -22 -6 -5 -56 -37 -112 -71 -80 -50 -100 -66 -97 -82 4
-27 6 -176 1 -194 -3 -14 171 -135 239 -166 17 -8 34 -18 37 -23 4 -6 -86
-238 -97 -249 -2 -2 -64 11 -138 28 -74 17 -146 33 -160 35 -23 4 -39 -8 -109
-78 l-83 -82 19 -75 c10 -42 19 -81 20 -87 1 -7 9 -44 18 -84 9 -40 16 -74 14
-75 -5 -5 -97 -45 -102 -45 -3 0 -29 -11 -58 -24 -29 -12 -60 -26 -69 -29 -11
-4 -38 31 -104 136 l-88 142 -111 -2 c-61 -1 -114 -3 -118 -3 -3 0 -45 -63
-93 -140 l-87 -139 -37 15 c-20 8 -70 29 -111 46 -41 17 -80 36 -87 42 -9 8
-6 35 13 116 14 58 26 112 28 120 1 8 6 32 10 52 8 37 7 39 -74 119 l-82 82
-117 -27 c-64 -14 -125 -28 -136 -30 -11 -2 -31 -7 -45 -11 -25 -6 -28 -2 -65
92 -21 54 -42 102 -47 107 -26 31 -6 52 123 130 71 44 133 84 136 89 4 6 6 60
6 121 l0 111 -140 89 -140 89 50 124 c49 120 52 124 76 118 15 -4 55 -13 91
-21 36 -8 74 -17 85 -19 11 -3 43 -10 72 -16 l52 -12 82 82 82 83 -27 121
c-15 67 -30 133 -32 147 -3 14 -7 32 -10 41 -3 12 22 26 111 62 63 26 120 47
127 47 11 -1 106 -144 154 -231 7 -11 16 -25 22 -31 11 -11 223 -15 239 -5 5
3 47 66 93 140 93 150 78 141 165 103z"/>
<path d="M1183 1725 c-311 -73 -457 -425 -285 -691 81 -126 210 -201 355 -209
134 -7 255 40 349 136 280 285 93 758 -307 774 -33 1 -83 -3 -112 -10z m179
-140 c50 -11 99 -39 142 -82 122 -120 122 -326 1 -446 -126 -123 -325 -123
-448 -1 -35 36 -77 107 -86 149 -13 60 -3 152 22 205 69 145 206 210 369 175z"/>
</g>
</svg>
